<?xml version="1.0" encoding="utf-8"?>
<!-- Generator: Adobe Illustrator 22.0.1, SVG Export Plug-In . SVG Version: 6.00 Build 0)  -->
<svg version="1.1" id="Livello_1" xmlns="http://www.w3.org/2000/svg" xmlns:xlink="http://www.w3.org/1999/xlink" x="0px" y="0px"
	 width="200px" height="200px" viewBox="0 0 200 200" style="enable-background:new 0 0 200 200;" xml:space="preserve">
<style type="text/css">
	.st0{fill:#FFFFFF;}
	.st1{fill:#FF1847;}
</style>
<g id="bg_copia">
	<g>
		<path class="st0" d="M162.7,200H37.3C16.7,200,0,183.3,0,162.7V37.3C0,16.7,16.7,0,37.3,0h125.3C183.3,0,200,16.7,200,37.3v125.3
			C200,183.3,183.3,200,162.7,200z"/>
	</g>
</g>
<g id="Livello_2_1_">
	<path class="st1" d="M85.3,128.4c0,0-4.6-4.2-6.5-8.5c0,0,49.9-7.8,73.3-58.3L142,56c0,0-21.5,43.3-69.1,52.5c0,0-3.6-6.2-4.2-9.5
		c0,0,34.2-3.9,40.1-24.4c0,0,1.2-8.7-3.9-15.1c10.9-1.6,24.5-1.6,24.5-1.6l3.3-5.6C79.5,37.1,48,61.6,48,61.6s0.2,12.6,2.8,20.2
		c0,0,16.8-16.5,32.9-17.1c3.1-0.1,6,1.6,7.3,4.4c1.1,2.6,1,6.3-3.7,11c-9.8,9.8-35.9,7.2-35.9,7.2s9.8,45.6,48.9,73.3
		c0,0,26.4-20.9,32.3-35.9c0,0-18.6,17.3-30.6,20.9c0,0-7.2-4.9-8.1-6.8c0,0,49.2-17.3,55.1-52.1C148.8,86.7,123.4,120.6,85.3,128.4
		z"/>
</g>
</svg>
